<svg width="24" height="26" viewBox="0 0 24 26" fill="none" xmlns="http://www.w3.org/2000/svg">
<path d="M19.0027 18.414C17.3525 18.414 16.0101 19.8683 16.0101 21.6559C16.0101 23.4435 17.3526 24.8978 19.0027 24.8978C20.6527 24.8978 21.9952 23.4435 21.9952 21.6559C21.9952 19.8683 20.6527 18.414 19.0027 18.414ZM19.0027 22.9527C18.3425 22.9527 17.8056 22.3711 17.8056 21.6559C17.8056 20.9407 18.3425 20.3591 19.0027 20.3591C19.6628 20.3591 20.1997 20.9407 20.1997 21.6559C20.1997 22.3711 19.6628 22.9527 19.0027 22.9527Z" fill="black"/>
<path d="M23.8092 5.88433C23.6392 5.64865 23.3786 5.51119 23.1024 5.51119H5.54159L4.73361 1.84882C4.63695 1.41119 4.27573 1.10223 3.86037 1.10223H0.897755C0.401909 1.10218 0 1.53758 0 2.07475C0 2.61192 0.401909 3.04732 0.897755 3.04732H3.15175L6.06946 16.273C6.16611 16.711 6.52733 17.0196 6.9427 17.0196H20.9179C21.3305 17.0196 21.6902 16.7149 21.7893 16.2811L23.9738 6.71745C24.0399 6.42703 23.9792 6.12001 23.8092 5.88433ZM20.2155 15.0745H7.65131L5.97069 7.45632H21.9553L20.2155 15.0745Z" fill="black"/>
<path d="M8.13973 18.414C6.48963 18.414 5.14722 19.8683 5.14722 21.6559C5.14722 23.4435 6.48968 24.8978 8.13973 24.8978C9.78979 24.8978 11.1323 23.4435 11.1323 21.6559C11.1323 19.8683 9.78979 18.414 8.13973 18.414ZM8.13973 22.9527C7.47959 22.9527 6.94273 22.3711 6.94273 21.6559C6.94273 20.9407 7.47959 20.3591 8.13973 20.3591C8.79988 20.3591 9.33674 20.9407 9.33674 21.6559C9.33674 22.3711 8.79988 22.9527 8.13973 22.9527Z" fill="black"/>
</svg>
